<svg width="68" height="41" viewBox="0 0 68 41" fill="none" xmlns="http://www.w3.org/2000/svg">
<path d="M6.17852 26.2826H9.49591C10.1452 26.2826 10.6017 26.1507 10.8655 25.8869C11.1496 25.6029 11.2916 25.1362 11.2916 24.4869V15.2043C11.2916 14.555 11.1496 14.0985 10.8655 13.8348C10.6017 13.5507 10.1452 13.4087 9.49591 13.4087H6.17852C5.95533 13.4087 5.84373 13.5202 5.84373 13.7435V25.9478C5.84373 26.171 5.95533 26.2826 6.17852 26.2826ZM1.97852 28.9913V10.7C1.97852 10.2739 2.19156 10.0609 2.61765 10.0609H10.135C11.7176 10.0609 12.9452 10.4971 13.8176 11.3696C14.7104 12.2217 15.1568 13.4391 15.1568 15.0217V24.6696C15.1568 26.2522 14.7104 27.4797 13.8176 28.3522C12.9452 29.2043 11.7176 29.6304 10.135 29.6304H2.61765C2.19156 29.6304 1.97852 29.4174 1.97852 28.9913ZM23.0313 29.6304H22.3009C20.698 29.6304 19.4603 29.2043 18.5878 28.3522C17.7154 27.5 17.2791 26.2724 17.2791 24.6696V19.0696C17.2791 17.4667 17.7154 16.2391 18.5878 15.3869C19.4603 14.5348 20.698 14.1087 22.3009 14.1087H29.3313C29.7777 14.1087 30.0009 14.3217 30.0009 14.7478V28.9913C30.0009 29.4174 29.7777 29.6304 29.3313 29.6304H26.7748C26.3487 29.6304 26.1357 29.4174 26.1357 28.9913V27.9869H26.0139C25.7907 28.5348 25.395 28.9507 24.827 29.2348C24.2589 29.4985 23.6603 29.6304 23.0313 29.6304ZM26.1357 23.9696V17.7913C26.1357 17.5681 26.0139 17.4565 25.7704 17.4565H22.9096C22.2603 17.4565 21.8037 17.5985 21.54 17.8826C21.2763 18.1463 21.1443 18.6029 21.1443 19.2522V24.4869C21.1443 25.1362 21.2763 25.6029 21.54 25.8869C21.8037 26.1507 22.2603 26.2826 22.9096 26.2826H24.0357C25.4357 26.2826 26.1357 25.5116 26.1357 23.9696ZM35.801 29.6304H33.2141C32.788 29.6304 32.575 29.4174 32.575 28.9913V8.8739C32.575 8.44781 32.788 8.23477 33.2141 8.23477H35.801C36.2271 8.23477 36.4402 8.44781 36.4402 8.8739V28.9913C36.4402 29.4174 36.2271 29.6304 35.801 29.6304ZM44.5076 28.9304H43.5032C41.9409 28.9304 40.7539 28.5043 39.9424 27.6522C39.151 26.8 38.7554 25.5724 38.7554 23.9696V19.0696C38.7554 17.4667 39.1917 16.2391 40.0641 15.3869C40.9365 14.5348 42.1743 14.1087 43.7771 14.1087H50.8076C51.2539 14.1087 51.4771 14.3217 51.4771 14.7478V29.7522C51.4771 31.3348 51.0308 32.5522 50.138 33.4043C49.2656 34.2565 48.038 34.6826 46.4554 34.6826H40.6119C40.3684 34.6826 40.196 34.6319 40.0945 34.5304C40.0134 34.4493 39.9728 34.2971 39.9728 34.0739V31.9739C39.9728 31.5478 40.1858 31.3348 40.6119 31.3348H45.8163C46.4656 31.3348 46.9221 31.1928 47.1858 30.9087C47.4699 30.6449 47.6119 30.1985 47.6119 29.5696V27.2565H47.4902C47.267 27.8043 46.8713 28.2203 46.3032 28.5043C45.7351 28.7884 45.1365 28.9304 44.5076 28.9304ZM47.6119 23.2696V17.7913C47.6119 17.5681 47.4902 17.4565 47.2467 17.4565H44.3858C43.7365 17.4565 43.28 17.5985 43.0163 17.8826C42.7525 18.1463 42.6206 18.6029 42.6206 19.2522V23.7869C42.6206 24.4362 42.7525 24.8928 43.0163 25.1565C43.28 25.4202 43.7365 25.5522 44.3858 25.5522H45.5119C46.9119 25.5522 47.6119 24.7913 47.6119 23.2696ZM61.3244 29.6304H58.6157C57.0129 29.6304 55.7751 29.2043 54.9027 28.3522C54.0303 27.5 53.594 26.2724 53.594 24.6696V19.0696C53.594 17.4667 54.0303 16.2391 54.9027 15.3869C55.7751 14.5348 57.0129 14.1087 58.6157 14.1087H61.3244C62.9071 14.1087 64.1346 14.5449 65.0071 15.4174C65.8998 16.2696 66.3462 17.4869 66.3462 19.0696V24.6696C66.3462 26.2522 65.8998 27.4797 65.0071 28.3522C64.1346 29.2043 62.9071 29.6304 61.3244 29.6304ZM59.194 26.313H60.7462C61.3955 26.313 61.852 26.1811 62.1157 25.9174C62.3998 25.6536 62.5418 25.1971 62.5418 24.5478V19.1913C62.5418 18.542 62.3998 18.0855 62.1157 17.8217C61.852 17.558 61.3955 17.4261 60.7462 17.4261H59.194C58.5447 17.4261 58.0882 17.558 57.8244 17.8217C57.5607 18.0855 57.4288 18.542 57.4288 19.1913V24.5478C57.4288 25.1971 57.5607 25.6536 57.8244 25.9174C58.0882 26.1811 58.5447 26.313 59.194 26.313Z" fill="#0F2440"/>
<path d="M10.8657 13.8348L10.5471 14.1306L10.558 14.1424L10.5699 14.1534L10.8657 13.8348ZM13.8179 11.3696L13.5104 11.677L13.5177 11.6841L13.8179 11.3696ZM6.17873 26.7174H9.49612V25.8478H6.17873V26.7174ZM9.49612 26.7174C10.1815 26.7174 10.7851 26.5824 11.1732 26.1944L10.5582 25.5795C10.4187 25.719 10.1092 25.8478 9.49612 25.8478V26.7174ZM11.1732 26.1944C11.5767 25.7908 11.7266 25.1835 11.7266 24.4869H10.857C10.857 25.089 10.7227 25.415 10.5582 25.5795L11.1732 26.1944ZM11.7266 24.4869V15.2043H10.857V24.4869H11.7266ZM11.7266 15.2043C11.7266 14.512 11.5785 13.9034 11.1615 13.5162L10.5699 14.1534C10.721 14.2937 10.857 14.5981 10.857 15.2043H11.7266ZM11.1843 13.5389C10.7971 13.122 10.1885 12.9739 9.49612 12.9739V13.8435C10.1024 13.8435 10.4067 13.9795 10.5471 14.1306L11.1843 13.5389ZM9.49612 12.9739H6.17873V13.8435H9.49612V12.9739ZM6.17873 12.9739C6.00011 12.9739 5.78629 13.0189 5.62021 13.1849C5.45411 13.351 5.40916 13.5649 5.40916 13.7435H6.27873C6.27873 13.6989 6.28958 13.7453 6.23507 13.7998C6.18058 13.8543 6.13415 13.8435 6.17873 13.8435V12.9739ZM5.40916 13.7435V25.9478H6.27873V13.7435H5.40916ZM5.40916 25.9478C5.40916 26.1264 5.45411 26.3403 5.62021 26.5063C5.78629 26.6724 6.00011 26.7174 6.17873 26.7174V25.8478C6.13415 25.8478 6.18058 25.8369 6.23507 25.8915C6.28958 25.946 6.27873 25.9924 6.27873 25.9478H5.40916ZM2.41351 28.9913V10.7H1.54395V28.9913H2.41351ZM2.41351 10.7C2.41351 10.6284 2.42261 10.5835 2.43115 10.5579C2.43898 10.5343 2.4458 10.5282 2.44595 10.5281C2.44609 10.5279 2.45223 10.5211 2.47573 10.5133C2.50133 10.5048 2.54627 10.4956 2.61786 10.4956V9.62607C2.3378 9.62607 2.04789 9.69642 1.83108 9.9132C1.61426 10.13 1.54395 10.4199 1.54395 10.7H2.41351ZM2.61786 10.4956H10.1352V9.62607H2.61786V10.4956ZM10.1352 10.4956C11.6366 10.4956 12.7408 10.9074 13.5104 11.677L14.1253 11.0621C13.1499 10.0868 11.7991 9.62607 10.1352 9.62607V10.4956ZM13.5177 11.6841C14.3019 12.4326 14.7222 13.5225 14.7222 15.0217H15.5918C15.5918 13.3557 15.1194 12.0109 14.118 11.055L13.5177 11.6841ZM14.7222 15.0217V24.6696H15.5918V15.0217H14.7222ZM14.7222 24.6696C14.7222 26.1682 14.302 27.2711 13.5139 28.0412L14.1217 28.6632C15.1192 27.6884 15.5918 26.3362 15.5918 24.6696H14.7222ZM13.5139 28.0412C12.7448 28.7925 11.6394 29.1956 10.1352 29.1956V30.0652C11.7963 30.0652 13.1459 29.6162 14.1217 28.6632L13.5139 28.0412ZM10.1352 29.1956H2.61786V30.0652H10.1352V29.1956ZM2.61786 29.1956C2.54627 29.1956 2.50134 29.1865 2.47573 29.178C2.45223 29.1702 2.44609 29.1634 2.44595 29.1632C2.44581 29.163 2.43898 29.1569 2.43115 29.1334C2.42261 29.1078 2.41351 29.0629 2.41351 28.9913H1.54395C1.54395 29.2714 1.61426 29.5613 1.83108 29.7781C2.04789 29.9949 2.3378 30.0652 2.61786 30.0652V29.1956ZM26.1359 27.9869H26.5706V27.5522H26.1359V27.9869ZM26.0141 27.9869V27.5522H25.7218L25.6115 27.8229L26.0141 27.9869ZM24.8272 29.2348L25.0103 29.6291L25.0159 29.6265L25.0216 29.6236L24.8272 29.2348ZM21.5402 17.8826L21.8477 18.1901L21.8533 18.1843L21.8588 18.1784L21.5402 17.8826ZM21.5402 25.8869L21.2216 26.1828L21.2271 26.1887L21.2328 26.1944L21.5402 25.8869ZM23.0315 29.1956H22.3011V30.0652H23.0315V29.1956ZM22.3011 29.1956C20.7748 29.1956 19.66 28.7915 18.8919 28.0411L18.2842 28.6632C19.261 29.6172 20.6216 30.0652 22.3011 30.0652V29.1956ZM18.8919 28.0411C18.1271 27.2942 17.7141 26.1937 17.7141 24.6696H16.8446C16.8446 26.3512 17.304 27.7058 18.2842 28.6632L18.8919 28.0411ZM17.7141 24.6696V19.0696H16.8446V24.6696H17.7141ZM17.7141 19.0696C17.7141 17.5454 18.1271 16.4449 18.8919 15.698L18.2842 15.0759C17.304 16.0333 16.8446 17.3879 16.8446 19.0696H17.7141ZM18.8919 15.698C19.66 14.9476 20.7748 14.5435 22.3011 14.5435V13.6739C20.6216 13.6739 19.261 14.1219 18.2842 15.0759L18.8919 15.698ZM22.3011 14.5435H29.3315V13.6739H22.3011V14.5435ZM29.3315 14.5435C29.4926 14.5435 29.5327 14.5822 29.5335 14.5829C29.5348 14.5842 29.5413 14.5902 29.5487 14.6116C29.557 14.6352 29.5663 14.678 29.5663 14.7478H30.4359C30.4359 14.4624 30.3601 14.1699 30.1339 13.954C29.9115 13.7416 29.6168 13.6739 29.3315 13.6739V14.5435ZM29.5663 14.7478V28.9913H30.4359V14.7478H29.5663ZM29.5663 28.9913C29.5663 29.0611 29.557 29.1039 29.5487 29.1276C29.5413 29.1489 29.5348 29.1549 29.5335 29.1562C29.5327 29.1569 29.4926 29.1956 29.3315 29.1956V30.0652C29.6168 30.0652 29.9115 29.9975 30.1339 29.7851C30.3601 29.5692 30.4359 29.2767 30.4359 28.9913H29.5663ZM29.3315 29.1956H26.775V30.0652H29.3315V29.1956ZM26.775 29.1956C26.7034 29.1956 26.6585 29.1865 26.6329 29.178C26.6093 29.1702 26.6032 29.1634 26.6031 29.1632C26.6029 29.163 26.5961 29.1569 26.5883 29.1334C26.5798 29.1078 26.5706 29.0629 26.5706 28.9913H25.7011C25.7011 29.2714 25.7714 29.5613 25.9882 29.7781C26.205 29.9949 26.4949 30.0652 26.775 30.0652V29.1956ZM26.5706 28.9913V27.9869H25.7011V28.9913H26.5706ZM26.1359 27.5522H26.0141V28.4217H26.1359V27.5522ZM25.6115 27.8229C25.4312 28.2655 25.114 28.6053 24.6327 28.8459L25.0216 29.6236C25.6765 29.2962 26.1507 28.8041 26.4168 28.1509L25.6115 27.8229ZM24.644 28.8404C24.1336 29.0775 23.5975 29.1956 23.0315 29.1956V30.0652C23.7235 30.0652 24.3846 29.9196 25.0103 29.6291L24.644 28.8404ZM26.5706 23.9696V17.7913H25.7011V23.9696H26.5706ZM26.5706 17.7913C26.5706 17.6025 26.5174 17.3838 26.3384 17.2197C26.1665 17.0622 25.9505 17.0217 25.7706 17.0217V17.8913C25.8343 17.8913 25.8009 17.9067 25.7507 17.8607C25.7257 17.8377 25.7112 17.812 25.7045 17.7934C25.6986 17.7773 25.7011 17.7739 25.7011 17.7913H26.5706ZM25.7706 17.0217H22.9098V17.8913H25.7706V17.0217ZM22.9098 17.0217C22.2175 17.0217 21.6088 17.1698 21.2216 17.5868L21.8588 18.1784C21.9992 18.0273 22.3035 17.8913 22.9098 17.8913V17.0217ZM21.2328 17.5751C20.8447 17.9632 20.7098 18.5668 20.7098 19.2522H21.5793C21.5793 18.639 21.7081 18.3296 21.8477 18.1901L21.2328 17.5751ZM20.7098 19.2522V24.4869H21.5793V19.2522H20.7098ZM20.7098 24.4869C20.7098 25.1769 20.8466 25.7789 21.2216 26.1828L21.8588 25.5911C21.7063 25.4268 21.5793 25.0956 21.5793 24.4869H20.7098ZM21.2328 26.1944C21.6208 26.5824 22.2244 26.7174 22.9098 26.7174V25.8478C22.2966 25.8478 21.9872 25.719 21.8477 25.5795L21.2328 26.1944ZM22.9098 26.7174H24.0359V25.8478H22.9098V26.7174ZM24.0359 26.7174C24.8143 26.7174 25.4747 26.5011 25.9327 25.9966C26.3836 25.5001 26.5706 24.7977 26.5706 23.9696H25.7011C25.7011 24.6834 25.5381 25.1376 25.289 25.4121C25.047 25.6786 24.6574 25.8478 24.0359 25.8478V26.7174ZM35.8012 29.1956H33.2143V30.0652H35.8012V29.1956ZM33.2143 29.1956C33.1427 29.1956 33.0978 29.1865 33.0722 29.178C33.0487 29.1702 33.0425 29.1634 33.0424 29.1632C33.0423 29.163 33.0354 29.1569 33.0276 29.1334C33.0191 29.1078 33.0099 29.0629 33.0099 28.9913H32.1404C32.1404 29.2714 32.2107 29.5613 32.4275 29.7781C32.6444 29.9949 32.9343 30.0652 33.2143 30.0652V29.1956ZM33.0099 28.9913V8.8739H32.1404V28.9913H33.0099ZM33.0099 8.8739C33.0099 8.80231 33.0191 8.75737 33.0276 8.73177C33.0354 8.70827 33.0423 8.70213 33.0424 8.70199C33.0425 8.70184 33.0487 8.69502 33.0722 8.68719C33.0978 8.67865 33.1427 8.66955 33.2143 8.66955V7.79999C32.9343 7.79999 32.6444 7.8703 32.4275 8.08712C32.2107 8.30393 32.1404 8.59384 32.1404 8.8739H33.0099ZM33.2143 8.66955H35.8012V7.79999H33.2143V8.66955ZM35.8012 8.66955C35.8729 8.66955 35.9178 8.67865 35.9434 8.68719C35.9669 8.69502 35.9731 8.70184 35.9732 8.70199C35.9733 8.70213 35.9802 8.70827 35.988 8.73177C35.9965 8.75737 36.0056 8.80231 36.0056 8.8739H36.8752C36.8752 8.59384 36.8049 8.30393 36.588 8.08712C36.3712 7.8703 36.0813 7.79999 35.8012 7.79999V8.66955ZM36.0056 8.8739V28.9913H36.8752V8.8739H36.0056ZM36.0056 28.9913C36.0056 29.0629 35.9965 29.1078 35.988 29.1334C35.9802 29.1569 35.9733 29.163 35.9732 29.1632C35.9731 29.1634 35.9669 29.1702 35.9434 29.178C35.9178 29.1865 35.8729 29.1956 35.8012 29.1956V30.0652C36.0813 30.0652 36.3712 29.9949 36.588 29.7781C36.8049 29.5613 36.8752 29.2714 36.8752 28.9913H36.0056ZM39.9425 27.6522L39.6239 27.9481L39.6277 27.952L39.9425 27.6522ZM50.1382 33.4043L49.8379 33.0898L49.8344 33.0933L50.1382 33.4043ZM47.186 30.9087L46.8902 30.5901L46.8784 30.601L46.8674 30.6129L47.186 30.9087ZM47.6121 27.2565H48.0469V26.8217H47.6121V27.2565ZM47.4904 27.2565V26.8217H47.198L47.0878 27.0925L47.4904 27.2565ZM43.0165 17.8826L43.3239 18.1901L43.3296 18.1843L43.3351 18.1784L43.0165 17.8826ZM44.5078 28.4956H43.5034V29.3652H44.5078V28.4956ZM43.5034 28.4956C42.0194 28.4956 40.9625 28.0928 40.2574 27.3523L39.6277 27.952C40.5457 28.9159 41.8627 29.3652 43.5034 29.3652V28.4956ZM40.2612 27.3563C39.5688 26.6108 39.1904 25.5046 39.1904 23.9696H38.3208C38.3208 25.6402 38.7337 26.9893 39.6239 27.9481L40.2612 27.3563ZM39.1904 23.9696V19.0696H38.3208V23.9696H39.1904ZM39.1904 19.0696C39.1904 17.5454 39.6033 16.4449 40.3681 15.698L39.7605 15.0759C38.7803 16.0333 38.3208 17.3879 38.3208 19.0696H39.1904ZM40.3681 15.698C41.1363 14.9476 42.2511 14.5435 43.7773 14.5435V13.6739C42.0979 13.6739 40.7372 14.1219 39.7605 15.0759L40.3681 15.698ZM43.7773 14.5435H50.8078V13.6739H43.7773V14.5435ZM50.8078 14.5435C50.9689 14.5435 51.009 14.5822 51.0098 14.5829C51.0111 14.5842 51.0176 14.5902 51.025 14.6116C51.0332 14.6352 51.0425 14.678 51.0425 14.7478H51.9121C51.9121 14.4624 51.8364 14.1699 51.6101 13.954C51.3877 13.7416 51.0931 13.6739 50.8078 13.6739V14.5435ZM51.0425 14.7478V29.7522H51.9121V14.7478H51.0425ZM51.0425 29.7522C51.0425 31.2514 50.6221 32.3413 49.8379 33.0898L50.4384 33.7189C51.4398 32.763 51.9121 31.4182 51.9121 29.7522H51.0425ZM49.8344 33.0933C49.0652 33.8446 47.9598 34.2478 46.4556 34.2478V35.1174C48.1166 35.1174 49.4662 34.6684 50.442 33.7154L49.8344 33.0933ZM46.4556 34.2478H40.6121V35.1174H46.4556V34.2478ZM40.6121 34.2478C40.5183 34.2478 40.4579 34.2378 40.4228 34.2275C40.3891 34.2175 40.39 34.2109 40.4022 34.2229L39.7872 34.8379C40.0114 35.062 40.3287 35.1174 40.6121 35.1174V34.2478ZM40.4022 34.2229C40.4321 34.2529 40.4312 34.2719 40.4235 34.2434C40.4161 34.2156 40.4078 34.1621 40.4078 34.0739H39.5382C39.5382 34.3166 39.5755 34.6261 39.7872 34.8379L40.4022 34.2229ZM40.4078 34.0739V31.9739H39.5382V34.0739H40.4078ZM40.4078 31.9739C40.4078 31.9023 40.4169 31.8574 40.4254 31.8318C40.4332 31.8083 40.44 31.8022 40.4402 31.802C40.4404 31.8018 40.4465 31.795 40.4699 31.7872C40.4956 31.7787 40.5405 31.7696 40.6121 31.7696V30.9C40.332 30.9 40.0421 30.9703 39.8253 31.1871C39.6085 31.4039 39.5382 31.6938 39.5382 31.9739H40.4078ZM40.6121 31.7696H45.8165V30.9H40.6121V31.7696ZM45.8165 31.7696C46.5087 31.7696 47.1174 31.6215 47.5046 31.2045L46.8674 30.6129C46.7271 30.764 46.4227 30.9 45.8165 30.9V31.7696ZM47.4818 31.2273C47.8966 30.8422 48.0469 30.2466 48.0469 29.5696H47.1773C47.1773 30.1505 47.0436 30.4476 46.8902 30.5901L47.4818 31.2273ZM48.0469 29.5696V27.2565H47.1773V29.5696H48.0469ZM47.6121 26.8217H47.4904V27.6913H47.6121V26.8217ZM47.0878 27.0925C46.9074 27.535 46.5903 27.8749 46.109 28.1155L46.4978 28.8932C47.1528 28.5657 47.627 28.0736 47.893 27.4205L47.0878 27.0925ZM46.109 28.1155C45.6006 28.3696 45.0685 28.4956 44.5078 28.4956V29.3652C45.2049 29.3652 45.87 29.2071 46.4978 28.8932L46.109 28.1155ZM48.0469 23.2696V17.7913H47.1773V23.2696H48.0469ZM48.0469 17.7913C48.0469 17.6025 47.9937 17.3838 47.8146 17.2197C47.6427 17.0622 47.4267 17.0217 47.2469 17.0217V17.8913C47.3105 17.8913 47.2772 17.9067 47.227 17.8607C47.2019 17.8377 47.1874 17.812 47.1807 17.7934C47.1748 17.7773 47.1773 17.7739 47.1773 17.7913H48.0469ZM47.2469 17.0217H44.386V17.8913H47.2469V17.0217ZM44.386 17.0217C43.6937 17.0217 43.0851 17.1698 42.6978 17.5868L43.3351 18.1784C43.4754 18.0273 43.7798 17.8913 44.386 17.8913V17.0217ZM42.709 17.5751C42.321 17.9632 42.186 18.5668 42.186 19.2522H43.0556C43.0556 18.639 43.1844 18.3296 43.3239 18.1901L42.709 17.5751ZM42.186 19.2522V23.7869H43.0556V19.2522H42.186ZM42.186 23.7869C42.186 24.4723 42.321 25.0759 42.709 25.464L43.3239 24.849C43.1844 24.7096 43.0556 24.4001 43.0556 23.7869H42.186ZM42.709 25.464C43.0971 25.852 43.7006 25.9869 44.386 25.9869V25.1174C43.7729 25.1174 43.4634 24.9886 43.3239 24.849L42.709 25.464ZM44.386 25.9869H45.5121V25.1174H44.386V25.9869ZM45.5121 25.9869C46.2889 25.9869 46.9486 25.7742 47.4071 25.2759C47.8592 24.7844 48.0469 24.0889 48.0469 23.2696H47.1773C47.1773 23.972 47.015 24.4177 46.7672 24.6871C46.5256 24.9497 46.1353 25.1174 45.5121 25.1174V25.9869ZM65.0072 15.4174L64.6998 15.7249L64.7071 15.7319L65.0072 15.4174ZM62.1159 25.9174L61.8201 25.5988L61.8142 25.6042L61.8085 25.6099L62.1159 25.9174ZM62.1159 17.8217L61.8085 18.1292L61.8142 18.1349L61.8201 18.1403L62.1159 17.8217ZM61.3246 29.1956H58.6159V30.0652H61.3246V29.1956ZM58.6159 29.1956C57.0897 29.1956 55.9749 28.7915 55.2067 28.0411L54.5991 28.6632C55.5758 29.6172 56.9365 30.0652 58.6159 30.0652V29.1956ZM55.2067 28.0411C54.4419 27.2942 54.029 26.1937 54.029 24.6696H53.1594C53.1594 26.3512 53.6189 27.7058 54.5991 28.6632L55.2067 28.0411ZM54.029 24.6696V19.0696H53.1594V24.6696H54.029ZM54.029 19.0696C54.029 17.5454 54.4419 16.4449 55.2067 15.698L54.5991 15.0759C53.6189 16.0333 53.1594 17.3879 53.1594 19.0696H54.029ZM55.2067 15.698C55.9749 14.9476 57.0897 14.5435 58.6159 14.5435V13.6739C56.9365 13.6739 55.5758 14.1219 54.5991 15.0759L55.2067 15.698ZM58.6159 14.5435H61.3246V13.6739H58.6159V14.5435ZM61.3246 14.5435C62.8261 14.5435 63.9301 14.9552 64.6998 15.7249L65.3147 15.1099C64.3393 14.1346 62.9885 13.6739 61.3246 13.6739V14.5435ZM64.7071 15.7319C65.4912 16.4804 65.9116 17.5703 65.9116 19.0696H66.7812C66.7812 17.4036 66.3088 16.0587 65.3075 15.1029L64.7071 15.7319ZM65.9116 19.0696V24.6696H66.7812V19.0696H65.9116ZM65.9116 24.6696C65.9116 26.1682 65.4914 27.2711 64.7033 28.0412L65.3111 28.6632C66.3085 27.6884 66.7812 26.3362 66.7812 24.6696H65.9116ZM64.7033 28.0412C63.9342 28.7925 62.8288 29.1956 61.3246 29.1956V30.0652C62.9857 30.0652 64.3353 29.6162 65.3111 28.6632L64.7033 28.0412ZM59.1942 26.7478H60.7464V25.8782H59.1942V26.7478ZM60.7464 26.7478C61.4318 26.7478 62.0354 26.6129 62.4234 26.2249L61.8085 25.6099C61.669 25.7495 61.3595 25.8782 60.7464 25.8782V26.7478ZM62.4118 26.236C62.8287 25.8488 62.9768 25.2402 62.9768 24.5478H62.1072C62.1072 25.1541 61.9712 25.4584 61.8201 25.5988L62.4118 26.236ZM62.9768 24.5478V19.1913H62.1072V24.5478H62.9768ZM62.9768 19.1913C62.9768 18.4989 62.8287 17.8903 62.4118 17.5031L61.8201 18.1403C61.9712 18.2807 62.1072 18.585 62.1072 19.1913H62.9768ZM62.4234 17.5142C62.0354 17.1262 61.4318 16.9913 60.7464 16.9913V17.8609C61.3595 17.8609 61.669 17.9896 61.8085 18.1292L62.4234 17.5142ZM60.7464 16.9913H59.1942V17.8609H60.7464V16.9913ZM59.1942 16.9913C58.5088 16.9913 57.9052 17.1262 57.5172 17.5142L58.1321 18.1292C58.2716 17.9896 58.5811 17.8609 59.1942 17.8609V16.9913ZM57.5172 17.5142C57.1292 17.9023 56.9942 18.5059 56.9942 19.1913H57.8638C57.8638 18.5782 57.9925 18.2687 58.1321 18.1292L57.5172 17.5142ZM56.9942 19.1913V24.5478H57.8638V19.1913H56.9942ZM56.9942 24.5478C56.9942 25.2332 57.1292 25.8368 57.5172 26.2249L58.1321 25.6099C57.9925 25.4704 57.8638 25.1609 57.8638 24.5478H56.9942ZM57.5172 26.2249C57.9052 26.6129 58.5088 26.7478 59.1942 26.7478V25.8782C58.5811 25.8782 58.2716 25.7495 58.1321 25.6099L57.5172 26.2249Z" fill="#0F2440"/>
<path d="M14.0872 31.3696H2.43499C1.95475 31.3696 1.56543 31.7589 1.56543 32.2391V34.1522C1.56543 34.6324 1.95475 35.0217 2.43499 35.0217H14.0872C14.5674 35.0217 14.9567 34.6324 14.9567 34.1522V32.2391C14.9567 31.7589 14.5674 31.3696 14.0872 31.3696Z" fill="#00897B"/>
</svg>
